<svg width="83" height="109" viewBox="0 0 83 109" fill="none" xmlns="http://www.w3.org/2000/svg">
<g id="Group 1">
<g id="Mask group">
<g id="Union" filter="url(#filter0_d_20_20)">
<path fill-rule="evenodd" clip-rule="evenodd" d="M73.2926 51.7585V80.4457L43.999 95.3635C42.7687 95.9901 42.3041 97.4823 42.9613 98.6966C43.6185 99.9109 45.1486 100.387 46.379 99.7607L76.2875 84.5298C77.1047 84.3664 77.7778 83.8043 78.0955 83.0548C78.3201 82.5906 78.3938 82.0597 78.2926 81.5392V51.7302V51.698L78.2918 51.6658L77.4396 18.6261C77.4591 18.4266 77.4536 18.2272 77.4243 18.0322L77.4233 17.9937C77.3877 16.6134 76.2399 15.5224 74.8597 15.5569L74.8401 15.5575L45.714 0.289764C44.4912 -0.351265 42.9551 0.106865 42.2831 1.31303C41.6111 2.51918 42.0577 4.01662 43.2806 4.65765L72.4724 19.9598L73.2926 51.7585ZM9.00005 48.7071V20.2711L38.7871 5.10204C40.0175 4.47547 40.4821 2.98319 39.8249 1.76892C39.1677 0.55465 37.6375 0.0782191 36.4072 0.704782L6.59077 15.8888C6.56065 15.8877 6.5304 15.8871 6.50003 15.8871C5.1193 15.886 4 17.0044 4 18.3851L4 48.7353L4 48.7675L4.00083 48.7997L4.86928 82.4719C4.90488 83.8521 6.05267 84.9431 7.43293 84.9086C7.57812 84.905 7.72009 84.8891 7.85787 84.8618L37.0721 100.176C38.295 100.817 39.8311 100.359 40.5031 99.1525C41.175 97.9464 40.7284 96.4489 39.5055 95.8079L9.81342 80.2434L9.00005 48.7071Z" fill="#03F263"/>
</g>
</g>
<g id="Intersect" style="mix-blend-mode:darken">
<path fill-rule="evenodd" clip-rule="evenodd" d="M41.7153 11.3228L34.2444 27.3442L40.2905 43.9558L47.7614 27.9344L41.7153 11.3228ZM55.0168 47.8683L47.5458 63.8897L47.7444 64.4351C49.1611 68.3274 47.1541 72.6312 43.2618 74.0479C41.3335 74.7498 39.3041 74.6113 37.5749 73.8196C36.6931 73.7545 35.808 73.5312 34.9591 73.1354C31.2094 71.3869 29.5847 66.9328 31.3254 63.1815L25.2793 46.5699L21.7354 54.1699C17.0673 64.1806 21.3983 76.0803 31.4091 80.7484C38.8713 84.2281 47.383 82.7074 53.1667 77.5613C58.6874 72.2422 60.8792 63.9752 58.0882 56.3071L55.0168 47.8683Z" fill="#FF6B00" fill-opacity="0.91"/>
</g>
</g>
<defs>
<filter id="filter0_d_20_20" x="0" y="0" width="82.3371" height="108.466" filterUnits="userSpaceOnUse" color-interpolation-filters="sRGB">
<feFlood flood-opacity="0" result="BackgroundImageFix"/>
<feColorMatrix in="SourceAlpha" type="matrix" values="0 0 0 0 0 0 0 0 0 0 0 0 0 0 0 0 0 0 127 0" result="hardAlpha"/>
<feOffset dy="4"/>
<feGaussianBlur stdDeviation="2"/>
<feComposite in2="hardAlpha" operator="out"/>
<feColorMatrix type="matrix" values="0 0 0 0 0 0 0 0 0 0 0 0 0 0 0 0 0 0 0.25 0"/>
<feBlend mode="normal" in2="BackgroundImageFix" result="effect1_dropShadow_20_20"/>
<feBlend mode="normal" in="SourceGraphic" in2="effect1_dropShadow_20_20" result="shape"/>
</filter>
</defs>
</svg>
